<svg width="1000" height="1000" viewBox="0 0 1000 1000" fill="none" xmlns="http://www.w3.org/2000/svg">
<path d="M394.039 606H220.309C217.574 606 215.035 605.512 212.691 604.535C210.348 603.559 208.297 602.24 206.539 600.58C204.879 598.822 203.561 596.771 202.584 594.428C201.607 592.084 201.119 589.545 201.119 586.811V395.941H239.205V567.914H394.039V606ZM714.84 589.74C714.84 592.475 714.303 595.014 713.229 597.357C712.252 599.701 710.885 601.752 709.127 603.51C707.467 605.17 705.465 606.488 703.121 607.465C700.777 608.441 698.287 608.93 695.65 608.93C693.307 608.93 690.914 608.49 688.473 607.611C686.129 606.732 684.029 605.316 682.174 603.363L543.014 458.051V606H504.928V412.201C504.928 408.295 506.002 404.779 508.15 401.654C510.396 398.432 513.229 396.039 516.646 394.477C520.26 393.012 523.971 392.67 527.779 393.451C531.588 394.135 534.859 395.893 537.594 398.725L676.754 543.891V395.941H714.84V589.74Z" fill="#033540"/>
<path d="M460.396 606H422.311V395.941H460.396V606ZM797.604 606H759.518V395.941H797.604V606Z" fill="white"/>
<rect x="319" y="631" width="363" height="9" fill="white"/>
<rect x="319" y="360" width="363" height="9" fill="#033540"/>
</svg>
